<?xml version="1.0" standalone="no"?>
<!DOCTYPE svg PUBLIC "-//W3C//DTD SVG 20010904//EN"
 "http://www.w3.org/TR/2001/REC-SVG-20010904/DTD/svg10.dtd">
<svg version="1.0" xmlns="http://www.w3.org/2000/svg"
 width="460.000000pt" height="460.000000pt" viewBox="0 0 460.000000 460.000000"
 preserveAspectRatio="xMidYMid meet">
<metadata>
Created by potrace 1.14, written by Peter Selinger 2001-2017
</metadata>
<g transform="translate(0.000000,460.000000) scale(0.100000,-0.100000)"
fill="#000000" stroke="none">
<path d="M2735 4561 c-16 -10 -58 -23 -92 -31 -35 -7 -63 -17 -63 -21 0 -5 -5
-9 -11 -9 -7 0 -22 -11 -34 -24 -13 -14 -39 -28 -60 -32 -30 -5 -39 -3 -51 14
-12 17 -66 52 -82 52 -2 0 -2 -11 0 -25 4 -17 1 -25 -8 -25 -9 0 -14 11 -14
30 0 17 -4 30 -10 30 -5 0 -10 -5 -10 -11 0 -5 -4 -8 -9 -5 -5 4 -7 -2 -4 -13
6 -25 -16 -32 -66 -19 -34 9 -49 8 -81 -7 -21 -9 -43 -14 -49 -11 -6 4 -11 2
-11 -3 0 -6 -7 -11 -15 -11 -8 0 -15 -5 -15 -10 0 -6 -11 -22 -26 -35 -15 -14
-26 -36 -27 -57 -1 -18 -6 -39 -10 -45 -5 -8 -4 -13 2 -13 6 0 11 5 11 10 0 6
18 10 40 10 30 0 40 -4 40 -16 0 -14 3 -14 16 -4 22 19 180 41 211 29 39 -14
72 -11 90 11 29 33 35 22 10 -17 -13 -21 -28 -49 -32 -63 -18 -58 -78 -161
-90 -156 -53 20 -97 28 -122 21 -43 -12 -113 -12 -113 0 0 5 -4 4 -9 -3 -6
-11 -11 -10 -25 3 -9 9 -16 13 -16 9 0 -4 -16 14 -35 39 -54 70 -189 182 -261
216 -62 29 -82 51 -46 51 9 0 24 5 32 11 13 9 12 10 -3 5 -18 -6 -87 52 -87
74 0 5 -7 10 -15 10 -8 0 -25 6 -36 13 -18 10 -23 9 -26 -1 -3 -8 -9 -10 -16
-4 -19 14 -49 23 -42 12 3 -6 1 -10 -6 -10 -7 0 -9 -8 -4 -22 7 -23 11 -55 14
-111 0 -16 5 -26 10 -23 5 4 11 3 13 -1 1 -5 43 -27 91 -51 112 -54 185 -118
247 -216 30 -47 36 -67 23 -80 -9 -9 -43 -117 -43 -138 0 -39 -153 -16 -163
24 -3 10 -20 23 -37 30 -28 9 -31 14 -25 37 20 81 -1 198 -33 186 -9 -3 -12 1
-10 13 3 16 -30 52 -50 52 -14 0 -17 -77 -9 -185 9 -102 17 -130 48 -147 34
-20 37 -33 9 -48 -11 -6 -20 -20 -20 -30 0 -11 -6 -20 -12 -20 -7 0 -1 -8 15
-18 32 -20 35 -47 7 -62 -29 -15 -25 -38 10 -58 16 -9 30 -20 30 -24 0 -4 11
-19 25 -34 17 -18 25 -38 25 -63 0 -21 5 -42 12 -49 8 -8 5 -14 -16 -22 -15
-5 -33 -10 -40 -10 -8 0 -19 -7 -26 -16 -11 -13 -10 -16 8 -21 30 -7 17 -23
-18 -23 -50 0 -78 -19 -82 -55 -4 -34 14 -55 47 -55 27 0 16 -20 -14 -26 -22
-5 -29 -11 -26 -25 3 -12 -6 -24 -26 -36 -31 -19 -38 -33 -15 -33 8 0 22 -8
31 -17 12 -11 31 -16 64 -15 32 2 42 0 31 -7 -17 -12 -8 -23 23 -28 26 -5 38
-4 135 3 62 5 77 3 93 -12 16 -14 19 -26 14 -52 -5 -27 -2 -38 15 -54 32 -30
18 -32 -46 -9 -83 32 -77 19 12 -23 82 -39 92 -54 24 -36 -59 16 -59 8 0 -15
48 -19 50 -21 52 -60 2 -66 3 -68 16 -73 7 -2 12 6 12 20 0 13 3 33 6 46 l6
22 20 -22 c11 -13 29 -42 39 -65 18 -42 47 -64 102 -77 34 -8 36 -36 3 -36
-13 0 -30 -7 -37 -16 -13 -15 -11 -17 19 -12 25 4 32 1 27 -9 -3 -8 -5 -19 -5
-24 0 -5 -11 -4 -26 1 -34 13 -31 14 -39 -20 -6 -27 -20 -36 -49 -31 -5 1 -4
-5 4 -13 10 -13 10 -16 -4 -16 -9 0 -16 -6 -16 -13 0 -25 -37 -38 -82 -28 -23
6 -44 8 -46 7 -3 -4 44 -44 74 -63 18 -11 17 -12 -7 -12 -30 -1 -189 80 -232
118 -17 14 -48 43 -69 64 -22 20 -46 37 -54 37 -8 0 -14 7 -14 15 0 29 -25 14
-38 -22 -28 -81 -34 -121 -29 -193 6 -93 23 -153 58 -205 24 -37 25 -43 13
-60 -9 -12 -12 -30 -9 -44 4 -14 1 -27 -6 -32 -6 -4 -9 -14 -6 -24 4 -9 12
-13 19 -9 6 4 -1 -9 -16 -29 -31 -41 -38 -44 -59 -23 -8 8 -30 19 -48 24 -19
6 -29 11 -23 11 13 1 12 30 -1 51 -5 8 -11 23 -12 33 -2 10 -10 25 -18 33 -8
9 -15 22 -15 30 0 8 -9 14 -20 14 -13 0 -20 7 -20 19 0 11 -7 26 -15 35 -8 8
-19 26 -25 40 -11 29 -22 33 -39 13 -8 -10 -7 -22 1 -44 18 -49 -3 -63 -99
-63 -48 0 -84 -5 -91 -12 -9 -9 -15 -9 -24 0 -9 9 -9 12 0 12 22 0 13 19 -12
26 -13 3 -29 16 -36 30 -8 14 -22 24 -36 24 -12 0 -24 7 -28 15 -3 8 -23 18
-46 21 -22 4 -40 10 -40 15 0 5 -5 9 -11 9 -5 0 -27 11 -47 25 -20 14 -51 25
-69 25 -44 0 -52 -32 -24 -86 25 -47 136 -151 171 -160 32 -9 105 -80 91 -88
-6 -4 -11 -23 -11 -41 0 -27 -3 -33 -16 -28 -10 4 -15 1 -13 -8 1 -8 -11 -44
-29 -80 -23 -51 -37 -68 -57 -73 -14 -4 -28 -14 -32 -24 -3 -9 -22 -32 -42
-49 l-36 -33 35 -1 c51 -2 63 1 84 19 18 16 18 16 12 -5 -5 -14 -3 -23 3 -23
6 0 11 6 11 13 0 6 7 25 15 41 8 15 12 32 9 38 -3 5 3 12 14 15 11 3 23 16 26
29 5 17 13 24 31 24 14 0 25 4 25 10 0 20 45 61 90 82 25 11 53 24 62 29 25
13 184 1 229 -17 21 -9 39 -23 39 -30 0 -8 7 -17 15 -20 12 -5 13 -10 4 -20
-9 -11 -5 -16 15 -25 14 -7 37 -29 52 -50 15 -22 33 -39 41 -39 8 0 12 -4 9
-9 -4 -5 6 -12 21 -16 16 -3 39 -14 53 -25 21 -16 25 -28 27 -82 4 -84 13
-169 20 -188 3 -8 7 -26 7 -40 1 -14 6 -32 11 -40 5 -8 10 -17 10 -20 1 -14
28 -70 35 -70 4 0 17 -9 30 -20 20 -17 23 -29 22 -85 -1 -55 2 -67 18 -78 11
-6 20 -19 20 -29 0 -9 5 -20 10 -23 7 -4 6 -14 -2 -28 -9 -17 -19 -147 -19
-262 0 -23 20 -138 25 -143 3 -3 1 -12 -6 -19 -9 -11 -9 -16 1 -23 10 -5 12
-19 7 -43 -9 -47 10 -87 41 -87 27 0 27 -2 9 -38 -7 -15 -19 -64 -25 -109 -13
-92 -5 -121 36 -121 21 0 23 5 23 49 0 49 33 136 58 152 6 4 12 16 12 27 0 32
11 50 32 50 10 0 16 4 13 10 -3 5 -1 18 4 27 9 16 10 14 11 -8 0 -20 8 -30 29
-38 l29 -12 -27 -30 c-19 -20 -33 -28 -44 -23 -10 3 -17 1 -17 -5 0 -6 10 -11
22 -11 23 0 81 -16 110 -31 28 -14 36 -11 43 21 4 16 12 28 18 27 7 -1 12 10
13 26 1 15 -3 27 -7 27 -5 0 -9 4 -9 9 0 21 -52 66 -74 63 -16 -2 -22 3 -23
19 -4 55 78 89 213 89 34 0 75 5 90 10 28 11 82 -6 112 -37 7 -7 19 -13 25
-13 24 -1 66 -49 78 -90 8 -25 25 -51 41 -63 16 -12 33 -37 38 -56 12 -46 16
-104 7 -117 -11 -18 165 -28 204 -11 24 10 45 10 81 3 34 -7 65 -6 106 2 32 7
74 12 94 12 20 0 49 7 64 15 16 8 36 15 45 15 27 0 44 27 29 45 -10 12 -9 15
5 15 9 0 30 14 47 30 17 17 38 29 47 27 9 -2 35 11 58 30 47 38 82 53 122 53
16 0 39 9 53 19 13 11 49 27 79 35 65 19 72 24 124 91 22 28 45 56 52 63 16
17 16 13 18 95 1 47 6 72 16 78 8 4 14 12 15 16 2 17 23 57 23 46 1 -21 17
-15 31 11 11 21 10 27 -3 40 -9 9 -23 16 -31 16 -9 0 -13 6 -10 14 3 9 -3 17
-15 21 -23 7 -29 25 -9 25 7 0 2 7 -10 16 -12 8 -22 23 -22 33 0 9 -20 57 -45
106 -33 67 -45 101 -46 139 -1 60 -20 167 -30 180 -4 5 -2 17 4 27 9 14 8 22
-5 36 -16 18 -14 48 3 37 5 -3 9 -1 9 5 0 5 -4 12 -8 15 -9 5 -10 35 -1 51 3
6 4 21 2 35 -1 14 -4 41 -6 61 -1 20 -8 44 -16 52 -7 9 -10 21 -6 27 3 5 -1
10 -9 10 -9 0 -16 5 -16 12 0 6 -11 26 -25 43 -13 18 -22 35 -19 37 2 3 -2 21
-10 40 -9 20 -12 38 -9 42 4 3 0 17 -7 31 -12 22 -11 27 6 39 18 14 18 16 -15
50 -19 20 -41 36 -47 36 -7 0 -17 6 -21 12 -11 18 -74 61 -80 55 -2 -3 5 -10
16 -17 12 -6 21 -17 21 -25 0 -7 6 -16 13 -18 6 -3 -6 -6 -29 -6 -27 -1 -47 5
-62 19 -20 19 -20 22 -6 61 8 23 17 66 20 96 4 29 10 53 15 53 4 0 11 9 14 20
3 11 17 23 30 26 13 3 29 12 36 20 6 8 20 14 30 14 11 0 19 6 19 13 0 6 11 22
24 35 44 41 23 72 -50 72 -36 0 -54 -4 -55 -12 0 -7 -4 -4 -9 7 -7 17 -9 17
-9 3 -1 -13 -9 -9 -36 17 -21 22 -40 33 -50 29 -9 -4 -15 -1 -15 9 0 9 -6 20
-13 24 -8 4 -22 23 -32 41 -11 17 -23 32 -28 32 -4 0 -5 20 -2 43 5 34 3 48
-10 60 -21 21 -67 22 -106 1 -17 -8 -49 -17 -71 -19 -22 -2 -64 -15 -93 -29
-28 -15 -57 -26 -63 -26 -7 0 -12 -4 -12 -10 0 -5 -19 -14 -42 -20 -23 -7 -55
-26 -73 -45 -18 -18 -38 -35 -46 -38 -10 -4 -10 -6 -1 -6 15 -1 16 -21 0 -21
-18 0 -119 -50 -165 -81 -39 -27 -45 -29 -116 -23 -79 7 -165 -10 -174 -33 -9
-23 -32 12 -37 57 -2 23 -6 44 -8 46 -3 2 -20 -1 -39 -6 -70 -20 -149 -7 -149
25 0 7 10 17 23 20 12 4 33 17 47 30 67 60 88 68 142 57 39 -7 56 -6 77 4 45
24 57 17 27 -15 -42 -44 -13 -47 31 -3 50 51 152 81 318 93 14 1 11 4 -10 9
l-30 8 30 1 c49 2 10 19 -65 28 -63 7 -64 7 -25 14 29 4 33 7 13 8 -15 0 -30
6 -34 12 -5 8 -32 10 -85 6 -73 -5 -79 -4 -79 14 0 11 -6 28 -12 39 -9 15 -10
25 -2 37 16 26 15 26 192 73 23 6 42 15 42 20 0 6 7 10 15 10 9 0 18 7 21 15
4 8 12 15 19 15 7 0 16 6 19 13 4 10 2 -18 -4 -48 -1 -5 1 -20 5 -32 8 -26 60
-38 99 -23 16 6 34 6 44 1 9 -5 36 -17 60 -26 23 -10 42 -21 42 -25 0 -4 18
-14 40 -23 22 -8 40 -22 40 -30 0 -9 11 -14 30 -14 35 0 40 23 15 71 -8 15
-15 36 -15 46 0 10 -7 23 -15 30 -8 7 -15 18 -15 25 0 7 -7 18 -15 25 -9 8
-12 22 -8 41 3 18 0 38 -9 52 -9 12 -19 37 -22 55 -4 17 -12 32 -17 32 -5 0
-9 6 -9 14 0 8 -4 16 -9 18 -4 2 -12 13 -15 26 -6 17 -3 22 11 22 15 0 16 2 3
10 -11 7 -12 12 -3 21 8 8 9 18 2 31 -5 10 -7 22 -4 27 3 5 -4 12 -15 16 -11
3 -21 12 -22 18 -5 44 -28 97 -41 97 -9 0 -11 56 -9 207 3 222 -4 305 -44 464
-13 54 -24 107 -24 117 0 10 -14 47 -31 80 -34 68 -50 75 -104 43z m56 -101
c10 -6 19 -20 19 -31 0 -11 4 -29 10 -39 5 -10 13 -42 16 -72 4 -29 10 -54 15
-56 5 -2 9 -34 9 -70 0 -47 3 -63 10 -52 7 10 10 -25 10 -107 0 -76 -4 -123
-10 -123 -8 0 -17 165 -11 203 0 4 -3 7 -7 7 -5 0 -9 24 -11 53 -3 87 -37 177
-66 178 -11 0 -31 2 -43 3 -14 2 -26 -4 -30 -13 -3 -9 -13 -21 -21 -28 -13 -9
-14 -14 -3 -24 19 -20 15 -57 -8 -64 -20 -6 -28 -25 -11 -25 16 0 23 -38 10
-61 -9 -18 -8 -24 5 -31 11 -6 14 -14 8 -21 -5 -7 -12 -20 -15 -29 -4 -13 -2
-16 11 -12 15 5 15 4 0 -6 -10 -6 -18 -22 -18 -35 0 -19 5 -25 23 -25 12 0 28
-4 36 -9 20 -13 -50 -42 -116 -48 -41 -4 -56 -2 -70 12 -20 20 -25 42 -12 51
15 9 10 21 -12 27 -12 3 -18 10 -14 16 3 6 2 11 -4 11 -5 0 0 11 13 25 13 14
32 25 42 25 18 1 18 1 2 11 -10 5 -18 20 -18 32 0 13 -5 28 -10 33 -6 6 -13
32 -15 59 -4 42 -1 53 30 95 46 63 110 120 135 120 11 0 20 4 20 9 0 8 19 14
68 20 7 0 22 -4 33 -9z m-540 -31 c15 -7 24 -7 33 0 10 9 13 6 10 -15 -3 -30
1 -26 -46 -47 -32 -15 -90 -20 -110 -10 -4 2 -2 14 4 27 8 19 45 42 86 55 2 1
12 -4 23 -10z m209 -58 c0 -5 -7 -12 -16 -15 -14 -5 -15 -4 -4 9 14 17 20 19
20 6z m-935 -171 c3 -5 2 -10 -4 -10 -5 0 -13 5 -16 10 -3 6 -2 10 4 10 5 0
13 -4 16 -10z m435 -531 c0 -26 12 -30 27 -9 14 19 14 19 35 -2 14 -14 18 -23
10 -26 -7 -2 -12 -12 -12 -23 0 -10 -5 -19 -11 -19 -6 0 -9 -6 -6 -14 5 -11
-1 -12 -30 -4 -23 6 -39 6 -45 0 -7 -7 -19 -7 -36 1 -20 9 -26 9 -30 -1 -2 -6
-19 -12 -38 -12 -24 0 -34 -5 -34 -15 0 -8 -6 -15 -12 -16 -101 -8 -110 -4
-79 40 23 32 27 51 11 51 -5 0 -10 11 -10 24 0 13 -6 27 -12 29 -10 4 -9 8 2
16 18 12 58 4 83 -17 13 -11 23 -13 40 -5 12 6 31 7 42 2 11 -4 30 -8 43 -8
19 -1 21 3 16 24 -6 23 -5 23 20 12 14 -7 26 -19 26 -28z m-180 -168 c0 -6 -4
-13 -10 -16 -5 -3 -10 1 -10 9 0 9 5 16 10 16 6 0 10 -4 10 -9z m407 -897 c-3
-3 -12 -4 -19 -1 -8 3 -5 6 6 6 11 1 17 -2 13 -5z m109 -81 c26 -24 23 -53 -6
-53 -12 0 -29 20 -49 57 -17 31 -31 60 -31 65 0 7 29 -16 86 -69z m-617 -545
c7 11 9 11 14 -2 4 -9 18 -16 31 -16 26 0 116 -49 116 -63 0 -4 -17 1 -37 11
-28 13 -62 17 -125 17 -49 0 -88 2 -88 5 0 3 10 18 21 32 18 23 24 25 41 15
15 -9 20 -9 27 1z m1414 -10 c15 -7 27 -20 27 -29 0 -18 37 -33 45 -18 3 5 14
3 25 -3 14 -9 16 -16 8 -31 -5 -10 -7 -29 -4 -42 4 -15 0 -30 -11 -40 -15 -16
-15 -19 0 -45 21 -35 21 -44 2 -36 -8 3 -14 2 -13 -2 2 -12 -20 -60 -32 -67
-11 -7 32 -55 50 -55 5 0 18 -13 29 -29 29 -40 20 -91 -16 -91 -30 0 -66 -38
-96 -102 -22 -46 -25 -49 -40 -33 -12 11 -17 12 -17 4 0 -10 -3 -10 -12 -1
-19 19 -31 14 -26 -13 3 -13 1 -26 -4 -27 -10 -4 8 -59 21 -68 4 -3 11 -17 15
-32 5 -23 1 -30 -21 -45 -16 -10 -33 -25 -40 -33 -7 -8 -13 -10 -14 -5 0 6 -7
-8 -14 -30 -7 -22 -18 -39 -24 -38 -6 2 -11 -2 -11 -7 0 -6 -4 -10 -9 -10 -11
0 -24 39 -21 64 1 11 -3 15 -9 12 -6 -4 -11 -23 -11 -42 0 -37 -19 -48 -22
-11 -1 12 -4 -5 -7 -37 -6 -61 -24 -84 -36 -46 -3 11 -11 18 -16 15 -5 -4 -9
0 -9 7 -1 8 -7 5 -16 -7 -9 -11 -14 -34 -12 -51 3 -22 0 -30 -8 -27 -9 3 -11
-3 -7 -18 4 -14 2 -20 -5 -15 -6 3 -16 0 -24 -7 -31 -31 -77 -13 -124 48 -11
15 -17 17 -21 7 -4 -10 -8 -9 -18 4 -12 17 -13 16 -19 -3 -8 -24 -46 -43 -85
-43 -21 0 -35 11 -61 45 -19 25 -39 45 -45 45 -6 0 -18 11 -25 25 -7 13 -21
27 -30 30 -9 3 -27 30 -40 60 -23 54 -45 83 -65 84 -5 0 -27 8 -47 18 -27 13
-44 32 -64 71 -14 28 -32 52 -39 52 -6 0 -22 20 -35 45 -13 25 -27 45 -32 45
-5 0 -13 11 -18 25 -5 14 -14 25 -20 25 -6 0 -9 4 -5 10 6 9 -1 16 -63 72 -16
15 -30 38 -30 50 -1 44 -15 83 -39 105 -24 23 -30 43 -13 43 6 0 10 9 10 20 0
11 -4 20 -10 20 -5 0 -10 6 -10 13 0 8 23 12 80 12 74 0 99 7 68 18 -7 2 -10
8 -5 12 8 9 46 -27 64 -62 7 -13 8 -25 2 -28 -14 -9 -11 -28 4 -22 8 3 12 -6
12 -27 0 -26 4 -31 21 -28 12 1 27 -4 34 -13 7 -8 27 -15 45 -15 17 0 47 -8
66 -17 24 -12 53 -16 101 -14 62 3 67 1 74 -21 10 -30 5 -120 -7 -132 -10 -11
-49 25 -49 46 -1 20 -30 -52 -30 -73 0 -11 -3 -19 -8 -19 -4 0 -6 -20 -4 -45
2 -25 8 -45 12 -45 5 0 6 -8 3 -19 -3 -11 2 -21 13 -25 25 -10 54 3 54 24 0
17 1 17 34 0 59 -30 92 -74 105 -141 l9 -44 1 56 c1 68 10 80 28 37 11 -26 16
-30 23 -18 8 12 10 10 10 -7 0 -24 19 -33 21 -10 0 9 2 10 6 0 2 -7 9 -13 14
-13 4 0 6 7 3 15 -4 8 -1 15 6 15 13 0 10 70 -5 105 -8 17 -7 18 7 7 13 -10
19 -10 34 5 17 17 17 17 11 -9 -7 -27 9 -43 30 -30 13 9 23 61 12 68 -12 7
-11 24 1 24 5 0 12 -11 16 -24 3 -13 14 -26 24 -29 10 -3 26 -21 34 -41 10
-23 21 -36 33 -35 15 0 15 2 3 7 -9 4 -16 22 -17 43 -1 20 -12 55 -23 78 -25
46 -20 107 6 97 8 -3 14 0 13 7 -5 37 1 48 22 42 17 -6 20 -3 17 11 -2 10 -28
32 -58 48 -30 15 -57 32 -60 35 -17 23 -79 61 -85 52 -11 -19 -35 -12 -35 9 0
11 5 20 10 20 6 0 21 9 33 21 19 18 30 20 77 14 30 -3 63 -8 73 -11 13 -4 17
1 17 24 0 30 29 52 70 52 11 0 20 5 20 10 0 6 11 16 25 22 14 6 25 17 25 25 0
7 17 28 37 46 20 18 50 47 67 65 32 35 48 38 89 20z m-1248 -117 c-3 -6 -11
-11 -16 -11 -5 0 -4 6 3 14 14 16 24 13 13 -3z m35 -21 c0 -5 -7 -10 -16 -10
-8 0 -12 5 -9 10 3 6 10 10 16 10 5 0 9 -4 9 -10z m1007 -812 c-3 -7 -5 -2 -5
12 0 14 2 19 5 13 2 -7 2 -19 0 -25z"/>
<path d="M2990 1720 c0 -5 4 -10 9 -10 6 0 13 5 16 10 3 6 -1 10 -9 10 -9 0
-16 -4 -16 -10z"/>
<path d="M2800 1334 c0 -3 8 -16 19 -29 10 -13 24 -51 31 -84 14 -66 40 -86
40 -31 0 43 -23 110 -37 110 -7 0 -13 3 -13 8 0 4 -9 13 -20 20 -11 7 -20 9
-20 6z"/>
<path d="M2895 4506 c-13 -31 51 -279 65 -256 4 6 23 -6 44 -25 39 -35 71 -43
124 -29 27 8 26 32 -3 48 -11 6 -24 17 -28 24 -4 6 -14 12 -22 12 -8 0 -17 11
-21 24 -3 14 -12 27 -20 30 -8 3 -14 14 -14 23 0 28 -28 63 -45 57 -9 -4 -15
0 -15 10 0 9 -3 15 -7 15 -21 -3 -44 2 -39 9 2 4 1 23 -3 42 -7 30 -9 32 -16
16z m62 -228 c-3 -7 -5 -2 -5 12 0 14 2 19 5 13 2 -7 2 -19 0 -25z"/>
<path d="M1010 4403 c-13 -15 -26 -41 -28 -58 -2 -16 -12 -41 -22 -55 l-18
-26 56 2 c31 1 64 5 73 9 10 3 20 2 24 -4 9 -15 42 -13 94 5 54 18 93 12 84
-14 -6 -15 -5 -15 12 2 20 20 29 46 15 46 -13 0 -30 59 -20 65 16 10 -21 56
-39 50 -23 -7 -66 -7 -141 0 -62 6 -66 6 -90 -22z"/>
<path d="M4527 4400 c-3 -13 -10 -18 -21 -14 -11 4 -16 0 -16 -12 0 -16 -2
-17 -10 -4 -6 10 -10 11 -10 3 0 -7 -11 -13 -25 -13 -20 0 -25 -5 -25 -24 0
-33 17 -76 30 -76 6 0 13 12 16 28 6 28 16 32 102 32 32 0 32 0 32 50 l0 50
-34 0 c-25 0 -35 -5 -39 -20z"/>
<path d="M370 4386 c0 -14 -7 -31 -15 -39 -11 -12 -12 -21 -3 -44 10 -26 16
-30 47 -29 36 1 36 1 37 -44 1 -47 -13 -118 -28 -135 -5 -5 -8 -2 -8 8 0 9 -7
17 -15 17 -7 0 -18 7 -22 15 -7 12 -14 12 -53 -2 -25 -8 -65 -15 -90 -15 -25
1 -63 -5 -85 -13 -22 -7 -61 -19 -87 -26 -28 -8 -48 -19 -48 -27 0 -21 253
-13 296 9 16 8 41 14 55 12 13 -2 33 -5 44 -6 11 -1 26 -6 33 -10 8 -5 12 -3
12 7 0 22 77 93 107 99 13 2 30 -2 38 -9 7 -8 27 -14 43 -14 16 0 35 -7 42
-15 8 -9 21 -13 36 -9 15 4 24 2 24 -6 0 -6 20 9 45 33 29 30 45 54 45 70 0
37 -10 56 -26 50 -10 -4 -14 3 -14 25 0 42 9 62 26 55 8 -3 14 0 14 6 0 6 -10
11 -22 12 -22 0 -22 1 -3 9 16 7 13 9 -17 9 -21 1 -38 -3 -38 -9 0 -5 -19 -10
-41 -10 l-42 0 5 -49 c3 -27 0 -58 -7 -70 l-11 -22 -27 25 c-15 14 -27 32 -27
41 0 8 -7 15 -15 15 -8 0 -15 -4 -15 -10 0 -5 -7 -10 -16 -10 -8 0 -12 5 -9
10 4 6 1 17 -5 25 -14 17 -66 20 -75 5 -3 -5 -10 -10 -14 -10 -11 0 -22 43
-13 50 4 3 7 15 8 28 1 24 -30 32 -39 10 -4 -10 -6 -10 -6 0 -2 23 -21 12 -21
-12z m-53 -288 c-3 -8 -6 -5 -6 6 -1 11 2 17 5 13 3 -3 4 -12 1 -19z"/>
<path d="M580 4375 c0 -8 7 -15 15 -15 8 0 15 7 15 15 0 8 -7 15 -15 15 -8 0
-15 -7 -15 -15z"/>
<path d="M220 4320 c0 -5 5 -10 10 -10 6 0 10 5 10 10 0 6 -4 10 -10 10 -5 0
-10 -4 -10 -10z"/>
<path d="M4230 4299 c0 -16 -5 -20 -20 -16 -11 3 -18 1 -14 -4 3 -5 12 -9 20
-9 8 0 18 -8 21 -17 10 -25 55 -62 76 -63 10 0 16 4 12 9 -3 5 4 12 15 16 11
3 20 11 20 17 0 6 11 8 25 6 21 -4 25 -1 25 17 0 20 -6 23 -45 27 -33 2 -45
-1 -45 -10 0 -8 -15 -1 -37 17 -44 37 -53 38 -53 10z"/>
<path d="M3418 4273 c7 -3 16 -2 19 1 4 3 -2 6 -13 5 -11 0 -14 -3 -6 -6z"/>
<path d="M1240 4263 c0 -5 5 -15 10 -23 8 -12 10 -11 10 8 0 12 -4 22 -10 22
-5 0 -10 -3 -10 -7z"/>
<path d="M3778 4243 c-27 -7 -22 -23 7 -23 14 0 25 -4 25 -10 0 -5 7 -10 15
-10 9 0 15 9 15 25 0 25 -16 30 -62 18z"/>
<path d="M1280 4229 c0 -5 9 -9 20 -9 11 0 20 2 20 4 0 2 -9 6 -20 9 -11 3
-20 1 -20 -4z"/>
<path d="M1365 4230 c-3 -5 -1 -10 4 -10 6 0 11 5 11 10 0 6 -2 10 -4 10 -3 0
-8 -4 -11 -10z"/>
<path d="M1240 4191 c0 -10 22 -16 44 -12 5 1 6 -12 3 -29 -4 -18 -2 -30 4
-30 6 0 9 16 7 38 -3 32 -7 37 -30 40 -16 2 -28 -1 -28 -7z"/>
<path d="M3751 4188 c3 -20 -12 -68 -22 -68 -5 0 -9 -8 -9 -17 0 -15 2 -14 16
3 11 14 17 16 21 6 9 -22 33 7 33 39 0 16 5 29 10 29 6 0 10 5 10 10 0 6 -14
10 -30 10 -19 0 -30 -5 -29 -12z"/>
<path d="M3200 4161 c0 -6 -6 -11 -14 -11 -25 0 -76 -49 -69 -68 26 -80 51
-101 75 -62 7 11 19 20 27 20 12 0 12 2 0 18 -8 9 -20 27 -27 40 -10 18 -10
22 2 22 16 0 28 37 15 46 -5 3 -9 0 -9 -5z"/>
<path d="M1280 4100 c0 -5 9 -10 20 -10 11 0 20 5 20 10 0 6 -9 10 -20 10 -11
0 -20 -4 -20 -10z"/>
<path d="M1332 4013 c-15 -6 -6 -23 14 -23 8 0 14 7 14 15 0 15 -6 17 -28 8z"/>
<path d="M3248 3832 c-71 -6 -79 -62 -9 -62 40 0 53 10 58 42 3 21 -3 24 -49
20z"/>
<path d="M4580 3781 c0 -11 5 -23 10 -26 6 -4 10 5 10 19 0 14 -4 26 -10 26
-5 0 -10 -9 -10 -19z"/>
<path d="M349 3595 c-14 -8 -49 -15 -77 -16 -64 -3 -69 -7 -70 -44 -1 -16 -2
-49 -3 -73 -2 -32 3 -48 18 -64 19 -18 24 -19 56 -7 24 8 38 21 42 37 3 13 13
31 20 39 8 8 15 33 15 55 l0 40 35 -6 c30 -6 35 -4 35 12 0 20 -18 42 -34 42
-6 -1 -23 -7 -37 -15z"/>
<path d="M1247 3583 c-4 -3 -7 -19 -7 -35 0 -21 5 -28 20 -28 12 0 20 7 20 16
0 14 3 14 15 4 12 -10 15 -10 15 4 0 9 5 16 11 16 5 0 7 -4 4 -10 -3 -5 -2
-10 4 -10 5 0 12 4 15 9 3 5 -15 16 -41 25 -54 19 -48 18 -56 9z"/>
<path d="M60 3480 c-12 -8 -10 -10 8 -10 13 0 20 4 17 10 -7 12 -6 12 -25 0z"/>
<path d="M37 3383 c11 -32 15 -34 29 -16 19 26 17 33 -11 33 -19 0 -23 -4 -18
-17z"/>
<path d="M481 3354 c0 -11 3 -14 6 -6 3 7 2 16 -1 19 -3 4 -6 -2 -5 -13z"/>
<path d="M0 3113 c0 -5 20 -15 45 -22 50 -15 82 -11 50 6 -29 16 -95 27 -95
16z"/>
<path d="M1498 3063 c7 -3 16 -2 19 1 4 3 -2 6 -13 5 -11 0 -14 -3 -6 -6z"/>
<path d="M259 2980 c-62 -8 -146 -40 -160 -63 -4 -5 -17 -7 -29 -4 -12 3 -33
1 -46 -5 -24 -11 -24 -13 -24 -150 0 -128 1 -139 18 -134 31 9 136 20 172 18
24 -1 30 1 21 7 -11 7 159 20 264 20 11 0 56 7 100 16 44 8 104 15 133 15 52
0 87 12 107 38 14 18 60 12 61 -8 1 -8 2 -25 3 -37 1 -27 45 -43 98 -37 53 7
215 5 291 -2 85 -9 110 -31 119 -101 3 -29 12 -61 19 -70 10 -15 11 4 7 107
-3 69 -9 130 -13 135 -5 6 -37 21 -73 34 -35 13 -69 33 -76 43 -11 17 -8 18
45 12 72 -9 66 2 -24 49 -61 32 -85 38 -208 52 -76 9 -179 22 -229 30 -49 8
-109 15 -132 15 -24 0 -43 4 -43 9 0 6 -8 9 -17 9 -10 0 -85 2 -168 5 -82 2
-180 1 -216 -3z"/>
<path d="M3784 2775 c2 -11 7 -29 11 -41 5 -18 0 -24 -32 -37 -21 -9 -30 -16
-20 -16 9 -1 20 0 23 2 8 3 43 -66 37 -75 -2 -5 1 -8 6 -8 6 0 11 -9 11 -20 0
-11 5 -20 11 -20 12 0 2 -83 -10 -88 -10 -3 -1 -61 10 -68 14 -8 11 -94 -3
-94 -9 0 -9 -3 1 -9 8 -5 15 -22 17 -38 1 -15 5 -53 9 -83 4 -30 8 -70 9 -87
1 -27 5 -33 30 -39 21 -5 25 -8 15 -15 -8 -5 -9 -9 -3 -9 7 0 14 -16 16 -35 2
-19 1 -35 -3 -35 -13 0 -18 -75 -7 -117 7 -31 7 -47 0 -56 -11 -13 -5 -49 20
-122 5 -16 11 -41 13 -54 2 -14 11 -28 19 -33 17 -10 21 -38 7 -53 -4 -6 -11
-24 -14 -42 -5 -26 -2 -36 19 -52 14 -11 25 -23 26 -28 1 -4 8 -14 17 -20 14
-12 14 -14 -3 -28 -11 -8 -15 -15 -10 -15 6 0 11 -27 12 -62 1 -93 12 -120 50
-130 22 -6 34 -16 38 -33 3 -14 11 -25 18 -25 6 0 4 -5 -4 -10 -13 -8 -12 -10
3 -10 16 0 18 -5 21 -65 1 -15 8 -20 31 -20 20 0 30 5 30 14 0 20 125 92 149
87 11 -3 49 8 85 23 36 15 87 31 114 35 l47 7 0 705 c0 702 0 705 -20 694 -23
-12 -24 -15 -10 -40 7 -13 7 -21 0 -25 -5 -3 -10 -2 -10 3 0 5 -14 7 -30 4
-33 -5 -85 22 -75 39 4 5 -11 16 -32 25 -21 8 -54 33 -73 54 -40 44 -86 65
-150 69 -25 2 -47 6 -50 10 -15 20 -62 39 -112 45 -32 4 -60 12 -63 17 -4 5
-17 9 -31 9 -15 0 -24 6 -24 15 0 16 -8 18 -88 19 -49 1 -53 -1 -48 -19z"/>
<path d="M4580 2684 c-11 -12 -10 -18 3 -32 16 -15 17 -14 17 16 0 36 -2 38
-20 16z"/>
<path d="M1780 2522 c0 -5 7 -15 15 -22 8 -7 15 -8 15 -2 0 5 -7 15 -15 22 -8
7 -15 8 -15 2z"/>
<path d="M1372 2458 c2 -13 11 -24 20 -26 14 -3 15 0 5 22 -15 32 -30 34 -25
4z"/>
<path d="M1324 2455 c-4 -8 -15 -15 -25 -15 -14 0 -19 -7 -19 -25 0 -29 0 -28
36 -15 18 7 30 7 39 0 10 -8 15 -7 21 1 4 7 2 15 -4 17 -7 2 -12 12 -12 22 0
23 -29 35 -36 15z"/>
<path d="M59 2411 c-9 -9 -19 -26 -23 -38 -4 -11 -13 -27 -21 -33 -23 -19 -18
-45 10 -58 20 -9 26 -8 34 5 9 18 114 37 119 22 2 -5 11 -9 20 -9 14 0 14 2 3
9 -11 7 -11 10 0 15 11 5 11 7 2 12 -19 9 -15 24 6 24 10 0 22 8 25 17 9 21
-32 56 -54 46 -28 -12 -92 -15 -99 -6 -3 6 -13 3 -22 -6z"/>
<path d="M231 2346 c-15 -18 5 -26 39 -15 24 8 24 9 -3 5 -21 -3 -27 0 -23 10
7 18 2 18 -13 0z"/>
<path d="M228 2303 c7 -3 16 -2 19 1 4 3 -2 6 -13 5 -11 0 -14 -3 -6 -6z"/>
<path d="M3820 2215 c0 -8 5 -15 10 -15 6 0 10 7 10 15 0 8 -4 15 -10 15 -5 0
-10 -7 -10 -15z"/>
<path d="M736 1699 c4 -7 0 -9 -14 -5 -13 4 -22 1 -26 -9 -3 -10 1 -15 13 -15
44 0 66 22 35 34 -9 4 -13 2 -8 -5z"/>
<path d="M535 1670 c-8 -12 64 -80 85 -79 8 0 24 4 35 9 19 8 19 9 1 9 -10 1
-36 17 -57 36 -41 36 -54 42 -64 25z"/>
<path d="M630 1650 c-12 -8 -9 -10 13 -10 16 0 26 4 22 10 -8 12 -16 12 -35 0z"/>
<path d="M528 1553 c7 -3 16 -2 19 1 4 3 -2 6 -13 5 -11 0 -14 -3 -6 -6z"/>
<path d="M564 1552 c2 -4 -15 -14 -40 -21 -25 -8 -44 -19 -44 -28 0 -7 -11
-26 -25 -41 -14 -15 -25 -30 -25 -34 0 -15 19 -8 29 11 6 10 30 30 53 44 24
14 54 37 67 51 l24 26 -22 0 c-12 0 -20 -4 -17 -8z"/>
<path d="M4185 430 c-33 -9 -73 -22 -90 -29 l-30 -13 25 -10 c14 -6 72 -10
130 -9 112 3 262 -26 284 -54 6 -7 22 -15 36 -18 14 -2 33 -8 43 -12 15 -6 17
0 17 67 l0 73 -92 -2 c-80 -2 -131 3 -243 21 -11 2 -47 -4 -80 -14z"/>
<path d="M2235 110 c3 -5 8 -10 11 -10 2 0 4 5 4 10 0 6 -5 10 -11 10 -5 0 -7
-4 -4 -10z"/>
<path d="M2185 84 c-19 -15 -19 -15 9 -12 16 2 31 9 34 16 5 17 -19 15 -43 -4z"/>
</g>
</svg>
