<?xml version="1.0" encoding="UTF-8" standalone="no"?> <svg width="64" height="64" viewBox="0 0 64 64" fill="none" xmlns="http://www.w3.org/2000/svg">
<path d="M32.0001 39.1601C33.4162 39.1601 34.8005 38.7402 35.978 37.9534C37.1554 37.1667 38.0731 36.0484 38.6151 34.7401C39.157 33.4318 39.2988 31.9921 39.0225 30.6032C38.7462 29.2143 38.0643 27.9385 37.063 26.9372C36.0616 25.9359 34.7858 25.2539 33.3969 24.9777C32.008 24.7014 30.5684 24.8432 29.2601 25.3851C27.9518 25.927 26.8335 26.8448 26.0468 28.0222C25.26 29.1997 24.8401 30.584 24.8401 32.0001C24.8427 33.8982 25.5979 35.7179 26.9401 37.0601C28.2823 38.4022 30.1019 39.1574 32.0001 39.1601V39.1601ZM32.0001 27.3401C32.9217 27.3401 33.8227 27.6134 34.589 28.1254C35.3554 28.6375 35.9527 29.3653 36.3054 30.2168C36.6581 31.0683 36.7504 32.0053 36.5705 32.9092C36.3907 33.8132 35.9469 34.6435 35.2952 35.2952C34.6435 35.9469 33.8132 36.3907 32.9092 36.5706C32.0053 36.7504 31.0683 36.6581 30.2168 36.3054C29.3653 35.9527 28.6375 35.3554 28.1254 34.5891C27.6134 33.8227 27.3401 32.9218 27.3401 32.0001C27.3401 30.7642 27.831 29.5789 28.705 28.705C29.5789 27.8311 30.7642 27.3401 32.0001 27.3401V27.3401Z" fill="black"/>
<path d="M32.0899 19.07C33.506 19.07 34.8904 18.6501 36.0678 17.8633C37.2453 17.0766 38.163 15.9583 38.7049 14.65C39.2468 13.3417 39.3886 11.9021 39.1124 10.5132C38.8361 9.12425 38.1542 7.84846 37.1528 6.84712C36.1515 5.84577 34.8757 5.16385 33.4868 4.88758C32.0979 4.61131 30.6582 4.7531 29.3499 5.29503C28.0416 5.83695 26.9234 6.75466 26.1366 7.93212C25.3499 9.10958 24.9299 10.4939 24.9299 11.91C24.9326 13.8081 25.6878 15.6278 27.03 16.97C28.3722 18.3122 30.1918 19.0674 32.0899 19.07V19.07ZM32.0899 7.25C33.0116 7.25 33.9126 7.52331 34.6789 8.03535C35.4452 8.5474 36.0425 9.2752 36.3952 10.1267C36.7479 10.9782 36.8402 11.9152 36.6604 12.8191C36.4806 13.7231 36.0368 14.5534 35.385 15.2051C34.7333 15.8568 33.903 16.3007 32.9991 16.4805C32.0951 16.6603 31.1581 16.568 30.3066 16.2153C29.4551 15.8626 28.7273 15.2653 28.2153 14.499C27.7032 13.7326 27.4299 12.8317 27.4299 11.91C27.4299 10.6741 27.9209 9.48881 28.7948 8.61489C29.6687 7.74097 30.854 7.25 32.0899 7.25V7.25Z" fill="black"/>
<path d="M32.0899 44.9299C30.6738 44.9299 29.2895 45.3499 28.1121 46.1366C26.9346 46.9234 26.0169 48.0416 25.475 49.3499C24.933 50.6582 24.7912 52.0979 25.0675 53.4868C25.3438 54.8757 26.0257 56.1515 27.027 57.1528C28.0284 58.1542 29.3042 58.8361 30.6931 59.1124C32.082 59.3886 33.5216 59.2468 34.8299 58.7049C36.1383 58.163 37.2565 57.2453 38.0433 56.0678C38.83 54.8904 39.2499 53.506 39.2499 52.0899C39.2473 50.1918 38.4921 48.3722 37.1499 47.03C35.8077 45.6878 33.9881 44.9326 32.0899 44.9299V44.9299ZM32.0899 56.7499C31.1683 56.7499 30.2673 56.4766 29.501 55.9646C28.7346 55.4525 28.1374 54.7247 27.7847 53.8732C27.432 53.0217 27.3397 52.0848 27.5195 51.1808C27.6993 50.2769 28.1431 49.4465 28.7948 48.7948C29.4465 48.1431 30.2769 47.6993 31.1808 47.5195C32.0848 47.3397 33.0217 47.4319 33.8732 47.7847C34.7247 48.1374 35.4525 48.7346 35.9646 49.501C36.4766 50.2673 36.7499 51.1683 36.7499 52.0899C36.7499 53.3258 36.259 54.5111 35.3851 55.385C34.5111 56.259 33.3258 56.7499 32.0899 56.7499V56.7499Z" fill="black"/>
</svg>
