<?xml version="1.0" standalone="no"?>
<!DOCTYPE svg PUBLIC "-//W3C//DTD SVG 20010904//EN"
 "http://www.w3.org/TR/2001/REC-SVG-20010904/DTD/svg10.dtd">
<svg version="1.0" xmlns="http://www.w3.org/2000/svg"
 width="268.000000pt" height="268.000000pt" viewBox="0 0 268.000000 268.000000"
 preserveAspectRatio="xMidYMid meet">
<metadata>
Created by potrace 1.14, written by Peter Selinger 2001-2017
</metadata>
<g transform="translate(0.000000,268.000000) scale(0.100000,-0.100000)"
fill="#000000" stroke="none">
<path d="M1970 2409 c-38 -16 -59 -39 -85 -94 -24 -53 -120 -251 -339 -700
-73 -148 -168 -343 -211 -432 l-78 -161 -121 172 c-67 94 -147 207 -177 251
-236 339 -273 388 -305 401 -60 25 -130 0 -159 -57 -16 -31 -14 -73 10 -177 8
-34 17 -77 20 -95 3 -17 10 -48 15 -67 5 -19 11 -48 14 -65 3 -16 28 -136 56
-265 28 -129 52 -244 54 -255 3 -17 38 -175 52 -240 3 -11 9 -40 14 -65 5 -25
20 -98 34 -163 14 -65 28 -133 31 -150 3 -18 14 -43 24 -57 39 -54 39 -54 531
-54 420 0 457 1 482 18 49 32 58 57 73 206 1 14 5 50 9 80 4 30 9 71 11 90 2
19 9 71 14 115 6 44 13 105 16 135 3 30 8 66 10 80 2 14 7 50 10 80 3 30 8 71
10 90 3 19 7 55 10 80 3 25 7 61 10 80 2 19 7 60 10 90 4 30 8 66 10 80 2 14
7 50 10 80 8 77 25 220 30 250 2 14 6 52 10 86 3 33 7 71 10 85 12 71 49 409
48 439 -3 64 -39 104 -104 114 -19 3 -45 1 -59 -5z"/>
</g>
</svg>
